PathFileType  4	(X/Y/Z) C:\Users\antoi\Documents\MyRepositories\mobilecap\ResultsAnalysis
DataRate	CameraRate	NumFrames	NumMarkers	Units	OrigDataRate	OrigDataStartFrame	OrigNumFrames
100.0	100.0	5	51	mm	100.0	116	154
Frame#	Time	r_knee			r_shank_antsup			r_ankle			r_calc			r_5meta			r_toe			L_knee			L_shank_antsup			L_ankle			L_calc			L_5meta			L_toe			r_sh2			r_sh3			r_sh4			L_sh2			L_sh3			r_thigh1			r_thigh2			r_thigh3			r_thigh4			r_thigh5			L_thigh1			L_thigh2			L_thigh3			L_thigh4			r.ASIS			r.PSIS			L.ASIS			L.PSIS			C7			R_Shoulder			L_Shoulder			R_Sternum			L_Sternum			R_humerus			R_elbow_med			R_elbow_lat			R_forearm			R_wrist_radius			R_wrist_ulna			L_humerus			L_elbow_med			L_elbow_lat			L_forearm			L_wrist_radius			L_wrist_ulna			R_HJC			L_HJC			R_HJC_reg			L_HJC_reg			
		X1	Y1	Z1	X2	Y2	Z2	X3	Y3	Z3	X4	Y4	Z4	X5	Y5	Z5	X6	Y6	Z6	X7	Y7	Z7	X8	Y8	Z8	X9	Y9	Z9	X10	Y10	Z10	X11	Y11	Z11	X12	Y12	Z12	X13	Y13	Z13	X14	Y14	Z14	X15	Y15	Z15	X16	Y16	Z16	X17	Y17	Z17	X18	Y18	Z18	X19	Y19	Z19	X20	Y20	Z20	X21	Y21	Z21	X22	Y22	Z22	X23	Y23	Z23	X24	Y24	Z24	X25	Y25	Z25	X26	Y26	Z26	X27	Y27	Z27	X28	Y28	Z28	X29	Y29	Z29	X30	Y30	Z30	X31	Y31	Z31	X32	Y32	Z32	X33	Y33	Z33	X34	Y34	Z34	X35	Y35	Z35	X36	Y36	Z36	X37	Y37	Z37	X38	Y38	Z38	X39	Y39	Z39	X40	Y40	Z40	X41	Y41	Z41	X42	Y42	Z42	X43	Y43	Z43	X44	Y44	Z44	X45	Y45	Z45	X46	Y46	Z46	X47	Y47	Z47	X48	Y48	Z48	X49	Y49	Z49	X50	Y50	Z50	X51	Y51	Z51	

116	1.15000000	1121.92245	488.14846	-105.32652	1174.45209	440.11347	-109.45390	1193.62244	100.33943	-118.73393	1144.33373	60.64263	-162.88959	1312.23118	76.93747	-106.72639	1342.40530	118.21002	-157.25629	920.49762	466.91872	-370.23143	936.77562	379.09878	-349.00467	813.75955	95.65952	-359.90106	746.67765	62.51619	-329.74786	916.63305	42.61965	-373.54834	956.86916	54.28170	-310.34518	1183.75606	328.39080	-100.06097	1103.47952	435.50008	-79.51251	1102.89264	318.53761	-77.08380	872.47472	409.04214	-405.47249	841.18235	290.90101	-413.96611	1071.40726	731.16304	-60.76317	1114.86219	627.85140	-75.70403	1063.53477	582.25838	-77.76929	967.27629	688.56388	-74.42277	1015.18480	583.57904	-105.96545	1023.78171	727.31048	-421.61417	998.41524	593.74228	-390.28455	914.66632	739.87686	-439.52272	883.51096	616.95785	-389.20040	1070.15499	921.14163	-135.15646	865.73758	965.05682	-215.05234	1080.37733	907.82305	-354.44435	873.37850	964.35435	-296.15065	1019.93442	1363.97049	-368.59397	1074.67081	1382.87703	-216.84039	1060.88350	1269.98723	-481.81426	1135.49828	1296.01330	-317.92022	1132.39714	1281.59243	-354.74746	1069.81898	1294.75203	-118.81388	917.49033	1137.96280	-66.14917	962.92002	1146.88447	-16.76184	1006.69895	1064.81488	4.91089	1011.56557	919.80145	33.80203	988.66857	930.05839	62.53909	1073.55188	1153.42229	-516.76718	1038.98270	940.36164	-448.99899	1075.71902	948.68485	-504.83065	1159.22196	882.84558	-483.10403	1228.88650	786.34075	-433.05387	1206.82276	763.87878	-457.08059	980.42407	841.43189	-138.66203	988.03470	833.25467	-345.86571	992.73390	852.46621	-171.80450	1006.34956	851.21402	-316.31733	
117	1.16000000	1129.27693	484.83697	-106.08713	1183.62796	439.62812	-110.50462	1220.10431	101.15224	-118.89710	1173.37069	58.87123	-163.07716	1339.89181	83.75139	-106.91377	1367.75772	126.36153	-157.56783	923.85161	467.06605	-370.52722	939.33743	379.12491	-349.22971	814.21592	96.41082	-359.73720	746.97508	63.42024	-329.63664	916.66299	42.80225	-373.62006	956.83420	54.22857	-310.34995	1198.57256	328.52655	-100.76237	1113.06126	431.73333	-80.32093	1118.18040	314.91642	-77.79458	875.24114	409.53778	-405.68528	843.00069	291.63810	-414.13490	1080.40222	727.69675	-61.09209	1122.65575	623.84941	-76.39450	1070.75541	578.84941	-78.47888	975.81992	686.42919	-74.94323	1023.13543	580.03655	-106.92682	1030.67463	726.03806	-421.92454	1003.36411	592.86123	-390.53145	921.77747	740.15736	-439.24646	889.01795	617.57493	-388.93603	1081.28035	918.85371	-135.12075	876.44457	963.42862	-213.52725	1090.09780	906.37175	-354.54928	883.64737	962.82670	-294.63648	1029.33723	1363.07768	-365.78154	1084.23077	1381.01835	-213.99220	1070.14980	1269.97500	-479.80411	1145.11175	1295.04675	-315.80830	1141.92853	1280.84639	-352.73716	1079.79404	1292.25093	-116.49564	928.34905	1134.41127	-64.70746	973.62700	1143.38895	-15.18672	1017.93690	1061.49887	6.20830	1023.50117	916.32951	34.57638	1000.51811	926.37924	63.30961	1082.34529	1153.52544	-515.57477	1046.24348	940.11194	-449.54923	1083.21724	948.64850	-505.19457	1166.04962	882.00109	-483.80934	1234.92653	784.57993	-434.37639	1212.56082	762.44897	-458.65110	991.46998	839.29168	-138.33306	997.72876	831.86110	-345.60940	1003.40384	850.68699	-171.47768	1016.24444	849.61355	-316.08268	
118	1.17000000	1136.82507	481.53479	-106.67638	1192.57412	438.95177	-111.21702	1245.27284	102.49877	-119.26707	1201.10332	58.01384	-163.66102	1365.86481	90.66512	-107.05487	1391.67405	134.55060	-157.69492	927.41628	467.25636	-370.91969	942.05640	379.15892	-349.48237	814.71871	97.22797	-359.62369	747.31675	64.43387	-329.54398	916.70824	42.99910	-373.70660	956.88253	54.15135	-310.39641	1212.72844	328.63700	-101.31312	1122.41203	427.93230	-81.02301	1132.94305	311.49648	-78.61420	878.21265	410.08513	-405.93073	844.98210	292.43565	-414.34594	1089.53307	724.21591	-61.28849	1130.62874	619.85759	-76.85795	1078.17907	575.41158	-78.89910	984.53979	684.22595	-75.29464	1031.59671	576.42870	-107.69884	1037.62079	724.76201	-422.33215	1008.41503	592.01851	-390.91560	928.87900	740.46017	-438.88884	894.61066	618.15848	-388.58421	1092.50190	916.41770	-135.09658	887.26707	961.64632	-211.99742	1099.99541	904.88500	-354.66986	894.01927	961.14382	-293.11022	1038.80329	1362.13457	-362.79430	1093.89356	1379.03045	-210.96704	1079.54228	1269.95241	-477.66368	1154.84667	1294.00672	-313.54823	1151.58072	1280.03787	-350.59264	1089.86101	1289.57979	-114.04073	939.29405	1130.66706	-63.19779	984.45848	1139.69487	-13.53712	1029.29870	1057.98215	7.56166	1035.61514	912.67990	35.36313	1012.54169	922.51423	64.08352	1091.20477	1153.63049	-514.30455	1053.47033	939.87027	-450.05082	1090.59927	948.63312	-505.52835	1172.70997	881.05610	-484.58463	1240.73208	782.64364	-435.87198	1218.00933	760.88293	-460.37005	1002.65368	836.98002	-138.05739	1007.58900	830.39780	-345.39714	1014.21618	848.81544	-171.14816	1026.26069	847.91877	-315.84946	
119	1.18000000	1144.75698	478.30468	-107.13831	1201.44569	438.03316	-111.62172	1268.88162	104.09551	-119.80748	1227.17700	57.79702	-164.62748	1389.94227	97.27712	-107.12215	1414.03029	142.36119	-157.61752	931.25233	467.47825	-371.38150	944.96365	379.17828	-349.75159	815.28427	98.09595	-359.56266	747.69964	65.55260	-329.47079	916.78827	43.17774	-373.79847	956.99951	54.01056	-310.49784	1226.26046	328.59296	-101.72963	1131.66276	424.11259	-81.64095	1147.18466	308.21489	-79.54939	881.41732	410.66932	-406.18512	847.15009	293.28583	-414.58191	1098.96602	720.82329	-61.34129	1138.99356	616.01337	-77.13406	1086.05127	572.04727	-79.06021	993.61401	681.98403	-75.42067	1040.76712	572.83343	-108.31630	1044.68219	723.45127	-422.78710	1013.64556	591.19311	-391.37297	936.02275	740.77561	-438.42775	900.34183	618.71851	-388.12264	1103.79137	913.84405	-135.07032	898.18679	959.71694	-210.44826	1110.09322	903.34217	-354.78337	904.47620	959.33867	-291.57039	1048.32795	1361.15605	-359.63727	1103.67779	1376.90392	-207.76916	1089.07619	1269.91029	-475.39305	1164.69401	1292.86770	-311.14666	1161.35729	1279.14385	-348.31939	1100.04197	1286.71847	-111.46898	950.33901	1126.73683	-61.61768	995.43722	1135.79098	-11.82170	1040.78457	1054.24939	8.96783	1047.89720	908.82928	36.16119	1024.75072	918.44000	64.86298	1100.13184	1153.72085	-512.94100	1060.75221	939.62229	-450.46379	1097.90152	948.64289	-505.81260	1179.23584	880.01249	-485.42102	1246.28326	780.51389	-437.53684	1223.20078	759.18365	-462.23061	1013.94363	834.51000	-137.81603	1017.60413	828.86542	-345.20885	1025.17141	846.81694	-170.81881	1036.39719	846.14148	-315.61728	
120	1.19000000	1153.25627	475.20950	-107.51163	1210.43695	436.83783	-111.77749	1290.66840	105.60758	-120.49440	1251.24516	57.87299	-165.94050	1411.91536	103.15374	-107.09954	1434.66613	149.31730	-157.34429	935.39345	467.71038	-371.86835	948.09593	379.16235	-350.02277	815.91798	99.00937	-359.55387	748.11872	66.77242	-329.41758	916.91508	43.30679	-373.88666	957.15348	53.77946	-310.65896	1239.24423	328.27364	-102.04294	1140.99392	420.32966	-82.19408	1160.90905	305.03996	-80.58550	884.88533	411.27539	-406.41982	849.52680	294.18716	-414.82454	1108.87466	717.62692	-61.25784	1147.95682	612.44897	-77.28362	1094.61808	568.86738	-79.01939	1003.21513	679.74192	-75.27990	1050.75775	569.35001	-108.82063	1051.92609	722.07895	-423.23514	1019.12212	590.34911	-391.83447	943.27627	741.08577	-437.85977	906.28035	619.25996	-387.54973	1115.12279	911.16100	-135.03219	909.18786	957.64673	-208.87130	1120.39626	901.71926	-354.86682	915.01464	957.43700	-290.01946	1057.91597	1360.15449	-356.31517	1113.59327	1374.63467	-204.40483	1098.75392	1269.84403	-472.98881	1174.64064	1291.60952	-308.60803	1171.26404	1278.15334	-345.91910	1110.35567	1283.65364	-108.80136	961.50397	1122.63894	-59.97593	1006.57643	1131.66824	-10.05028	1052.39892	1050.29292	10.42190	1060.35218	904.77305	36.96336	1037.14889	914.14276	65.64307	1109.12301	1153.78707	-511.46734	1068.18776	939.35067	-450.74966	1105.16538	948.68311	-506.02821	1185.65879	878.88399	-486.30760	1251.56848	778.18657	-439.36270	1228.16370	757.36187	-464.22520	1025.31513	831.90798	-137.58272	1027.76380	827.25622	-345.01758	1036.25949	844.66574	-170.50252	1046.66382	844.29072	-315.39106	
